<?xml version="1.0" encoding="UTF-8" standalone="no"?>
<svg
   width="395.00003pt"
   height="160pt"
   viewBox="0 0 395.00004 160.00001"
   version="1.1"
   id="svg63"
   sodipodi:docname="PTO_subblock.svg"
   inkscape:version="1.4 (e7c3feb1, 2024-10-09)"
   inkscape:export-filename="PTO_opt_block.png"
   inkscape:export-xdpi="96"
   inkscape:export-ydpi="96"
   xml:space="preserve"
   xmlns:inkscape="http://www.inkscape.org/namespaces/inkscape"
   xmlns:sodipodi="http://sodipodi.sourceforge.net/DTD/sodipodi-0.dtd"
   xmlns="http://www.w3.org/2000/svg"
   xmlns:svg="http://www.w3.org/2000/svg"
   xmlns:rdf="http://www.w3.org/1999/02/22-rdf-syntax-ns#"
   xmlns:cc="http://creativecommons.org/ns#"
   xmlns:dc="http://purl.org/dc/elements/1.1/"><sodipodi:namedview
     id="namedview63"
     pagecolor="#ffffff"
     bordercolor="#000000"
     borderopacity="0.25"
     inkscape:showpageshadow="2"
     inkscape:pageopacity="0.0"
     inkscape:pagecheckerboard="0"
     inkscape:deskcolor="#d1d1d1"
     inkscape:document-units="pt"
     showgrid="true"
     inkscape:zoom="2.109746"
     inkscape:cx="316.86278"
     inkscape:cy="129.39946"
     inkscape:window-width="1920"
     inkscape:window-height="945"
     inkscape:window-x="0"
     inkscape:window-y="25"
     inkscape:window-maximized="0"
     inkscape:current-layer="svg63"><inkscape:grid
       id="grid64"
       units="pt"
       originx="-30.000004"
       originy="10"
       spacingx="1.0000001"
       spacingy="0.99999998"
       empcolor="#0099e5"
       empopacity="0.30196078"
       color="#0099e5"
       opacity="0.14902"
       empspacing="5"
       dotted="false"
       gridanglex="30"
       gridanglez="30"
       visible="true" /><inkscape:page
       x="0"
       y="0"
       width="395.00006"
       height="160.00002"
       id="page46"
       margin="0"
       bleed="0" /></sodipodi:namedview><metadata
     id="metadata1"><rdf:RDF><cc:Work><dc:type
           rdf:resource="http://purl.org/dc/dcmitype/StillImage" /><dc:date>2025-02-19T21:44:17.246700</dc:date><dc:format>image/svg+xml</dc:format><dc:creator><cc:Agent><dc:title>Matplotlib v3.6.3, https://matplotlib.org/</dc:title></cc:Agent></dc:creator></cc:Work></rdf:RDF></metadata><defs
     id="defs1"><marker
       style="overflow:visible"
       id="marker73"
       refX="0"
       refY="0"
       orient="auto"
       inkscape:stockid="Colored dot"
       markerWidth="1"
       markerHeight="1"
       viewBox="0 0 1 1"
       inkscape:isstock="true"
       inkscape:collect="always"
       preserveAspectRatio="xMidYMid"><path
         transform="scale(0.45)"
         style="fill:context-fill;fill-rule:evenodd;stroke:context-stroke;stroke-width:2"
         d="M 5,0 C 5,2.76 2.76,5 0,5 -2.76,5 -5,2.76 -5,0 c 0,-2.76 2.3,-5 5,-5 2.76,0 5,2.24 5,5 z"
         sodipodi:nodetypes="sssss"
         id="path73" /></marker><marker
       style="overflow:visible"
       id="ColoredDot"
       refX="0"
       refY="0"
       orient="auto"
       inkscape:stockid="Colored dot"
       markerWidth="1"
       markerHeight="1"
       viewBox="0 0 1 1"
       inkscape:isstock="true"
       inkscape:collect="always"
       preserveAspectRatio="xMidYMid"><path
         transform="scale(0.45)"
         style="fill:context-fill;fill-rule:evenodd;stroke:context-stroke;stroke-width:2"
         d="M 5,0 C 5,2.76 2.76,5 0,5 -2.76,5 -5,2.76 -5,0 c 0,-2.76 2.3,-5 5,-5 2.76,0 5,2.24 5,5 z"
         sodipodi:nodetypes="sssss"
         id="path20" /></marker><marker
       style="overflow:visible"
       id="Triangle"
       refX="0"
       refY="0"
       orient="auto-start-reverse"
       inkscape:stockid="Triangle arrow"
       markerWidth="1"
       markerHeight="1"
       viewBox="0 0 1 1"
       inkscape:isstock="true"
       inkscape:collect="always"
       preserveAspectRatio="xMidYMid"><path
         transform="scale(0.5)"
         style="fill:context-stroke;fill-rule:evenodd;stroke:context-stroke;stroke-width:1pt"
         d="M 5.77,0 -2.88,5 V -5 Z"
         id="path135" /></marker><inkscape:path-effect
       effect="bspline"
       id="path-effect66"
       is_visible="true"
       lpeversion="1.3"
       weight="33.333333"
       steps="2"
       helper_size="0"
       apply_no_weight="true"
       apply_with_weight="true"
       only_selected="false"
       uniform="false" /><rect
       x="266.66669"
       y="93.333328"
       width="40.000004"
       height="26.666666"
       id="rect56" /><rect
       x="353.65009"
       y="209.99998"
       width="73.016602"
       height="29.999998"
       id="rect55" /><rect
       x="153.33334"
       y="173.33333"
       width="93.333344"
       height="66.666664"
       id="rect54" /><rect
       x="160.00002"
       y="120"
       width="60.000004"
       height="46.666664"
       id="rect53" /><rect
       x="160.00002"
       y="126.66666"
       width="60.000004"
       height="40"
       id="rect52" /><rect
       x="93.333344"
       y="100"
       width="53.33334"
       height="20"
       id="rect46" /><rect
       x="433.3334"
       y="226.66666"
       width="20.000004"
       height="20.000002"
       id="rect43" /><rect
       x="413.3334"
       y="33.333332"
       width="26.66667"
       height="20"
       id="rect28" /><inkscape:path-effect
       effect="bspline"
       id="path-effect28"
       is_visible="true"
       lpeversion="1.3"
       weight="33.333333"
       steps="2"
       helper_size="0"
       apply_no_weight="true"
       apply_with_weight="true"
       only_selected="false"
       uniform="false" /><rect
       x="240.00003"
       y="160"
       width="160.00002"
       height="20"
       id="rect26" /><rect
       x="226.6667"
       y="160"
       width="206.66669"
       height="19.999996"
       id="rect14" /><rect
       x="435.50674"
       y="305.17432"
       width="121.43326"
       height="35.222248"
       id="rect1" /><style
       type="text/css"
       id="style1">*{stroke-linejoin: round; stroke-linecap: butt}</style><path
       id="DejaVuSans-Oblique-64"
       d="M 2675,525 Q 2444,222 2128,65 1813,-91 1428,-91 903,-91 598,267 294,625 294,1247 q 0,519 184,989 185,470 535,842 231,247 521,376 291,130 610,130 337,0 595,-163 258,-162 399,-465 l 375,1907 h 578 L 3144,0 H 2566 Z M 891,1350 q 0,-453 204,-706 205,-253 568,-253 268,0 498,129 230,130 405,383 184,263 290,606 107,344 107,679 0,434 -205,677 -205,244 -564,244 -272,0 -507,-128 Q 1453,2853 1288,2613 1106,2353 998,2009 891,1666 891,1350 Z"
       transform="scale(0.015625)" /><path
       id="DejaVuSans-Oblique-3b4"
       d="m 3472,4053 q -275,219 -1022,219 -791,0 -862,-366 -57,-287 740,-437 625,-116 925,-466 363,-422 194,-1287 Q 3284,888 2763,400 2238,-91 1488,-91 741,-91 406,400 72,888 241,1747 q 122,637 650,1153 206,200 462,313 -440,246 -353,687 166,850 1544,850 690,0 1022,-219 z M 1753,3056 q -228,-90 -447,-318 -337,-354 -459,-991 -125,-634 72,-991 200,-359 665,-359 460,0 797,362 341,363 457,957 118,622 -107,922 -240,321 -628,356 -197,19 -350,62 z"
       transform="scale(0.015625)" /><path
       id="DejaVuSans-Oblique-74"
       d="m 2706,3500 -87,-447 H 1472 L 1100,1153 q -19,-106 -28,-178 -9,-72 -9,-112 0,-200 120,-291 120,-91 386,-91 h 581 L 2053,0 H 1503 Q 991,0 739,200 488,400 488,806 q 0,72 9,158 9,86 28,189 L 897,3053 H 409 l 91,447 h 478 l 194,994 h 575 l -191,-994 z"
       transform="scale(0.015625)" /><clipPath
       id="p90acac831a-5"><rect
         x="7.1999998"
         y="7.1999998"
         width="446.39999"
         height="221.75999"
         id="rect63-8" /></clipPath><clipPath
       id="p90acac831a-4"><rect
         x="7.1999998"
         y="7.1999998"
         width="446.39999"
         height="221.75999"
         id="rect63-6" /></clipPath><clipPath
       id="p90acac831a-3"><rect
         x="7.1999998"
         y="7.1999998"
         width="446.39999"
         height="221.75999"
         id="rect63-7" /></clipPath><path
       id="DejaVuSans-39"
       d="m 703,97 v 575 q 238,-113 481,-172 244,-59 479,-59 625,0 954,420 330,420 377,1277 -181,-269 -460,-413 -278,-144 -615,-144 -700,0 -1108,423 -408,424 -408,1159 0,718 425,1152 425,435 1131,435 810,0 1236,-621 427,-620 427,-1801 Q 3622,1225 3098,567 2575,-91 1691,-91 1453,-91 1209,-44 966,3 703,97 Z m 1256,1978 q 425,0 673,290 249,291 249,798 0,503 -249,795 -248,292 -673,292 -425,0 -673,-292 -248,-292 -248,-795 0,-507 248,-798 248,-290 673,-290 z"
       transform="scale(0.015625)" /><path
       id="DejaVuSans-30"
       d="m 2034,4250 q -487,0 -733,-480 -245,-479 -245,-1442 0,-959 245,-1439 246,-480 733,-480 491,0 736,480 246,480 246,1439 0,963 -246,1442 -245,480 -736,480 z m 0,500 q 785,0 1199,-621 414,-620 414,-1801 0,-1178 -414,-1799 -414,-620 -1199,-620 -784,0 -1198,620 -414,621 -414,1799 0,1181 414,1801 414,621 1198,621 z"
       transform="scale(0.015625)" /><path
       id="DejaVuSans-2218"
       d="m 2000,2619 q -250,0 -422,-174 -172,-173 -172,-423 0,-247 172,-417 172,-170 422,-170 250,0 422,170 172,170 172,417 0,247 -174,422 -173,175 -420,175 z m 0,403 q 200,0 384,-77 185,-76 319,-220 144,-140 216,-319 72,-178 72,-384 0,-412 -289,-698 -289,-286 -708,-286 -422,0 -704,281 -281,281 -281,703 0,419 287,709 288,291 704,291 z"
       transform="scale(0.015625)" /><clipPath
       id="p90acac831a-3-9"><rect
         x="7.1999998"
         y="7.1999998"
         width="446.39999"
         height="221.75999"
         id="rect63-7-3" /></clipPath><path
       id="path68-0"
       d="m 703,97 v 575 q 238,-113 481,-172 244,-59 479,-59 625,0 954,420 330,420 377,1277 -181,-269 -460,-413 -278,-144 -615,-144 -700,0 -1108,423 -408,424 -408,1159 0,718 425,1152 425,435 1131,435 810,0 1236,-621 427,-620 427,-1801 Q 3622,1225 3098,567 2575,-91 1691,-91 1453,-91 1209,-44 966,3 703,97 Z m 1256,1978 q 425,0 673,290 249,291 249,798 0,503 -249,795 -248,292 -673,292 -425,0 -673,-292 -248,-292 -248,-795 0,-507 248,-798 248,-290 673,-290 z"
       transform="scale(0.015625)" /><path
       id="path69-6"
       d="m 2034,4250 q -487,0 -733,-480 -245,-479 -245,-1442 0,-959 245,-1439 246,-480 733,-480 491,0 736,480 246,480 246,1439 0,963 -246,1442 -245,480 -736,480 z m 0,500 q 785,0 1199,-621 414,-620 414,-1801 0,-1178 -414,-1799 -414,-620 -1199,-620 -784,0 -1198,620 -414,621 -414,1799 0,1181 414,1801 414,621 1198,621 z"
       transform="scale(0.015625)" /><path
       id="path70-4"
       d="m 2000,2619 q -250,0 -422,-174 -172,-173 -172,-423 0,-247 172,-417 172,-170 422,-170 250,0 422,170 172,170 172,417 0,247 -174,422 -173,175 -420,175 z m 0,403 q 200,0 384,-77 185,-76 319,-220 144,-140 216,-319 72,-178 72,-384 0,-412 -289,-698 -289,-286 -708,-286 -422,0 -704,281 -281,281 -281,703 0,419 287,709 288,291 704,291 z"
       transform="scale(0.015625)" /><path
       id="DejaVuSans-Oblique-4b"
       d="m 1081,4666 h 635 L 1331,2700 3781,4666 h 841 L 1850,2438 3878,0 H 3109 L 1247,2272 806,0 H 172 Z"
       transform="scale(0.015625)" /><path
       id="DejaVuSans-Oblique-50"
       d="m 1081,4666 h 1460 q 637,0 971,-297 335,-297 335,-869 0,-769 -494,-1197 -494,-428 -1387,-428 H 1172 L 806,0 H 172 Z m 532,-519 -338,-1753 h 794 q 537,0 824,275 288,275 288,787 0,328 -195,509 -195,182 -548,182 z"
       transform="scale(0.015625)" /><clipPath
       id="p90acac831a-3-9-7"><rect
         x="7.1999998"
         y="7.1999998"
         width="446.39999"
         height="221.75999"
         id="rect63-7-3-6" /></clipPath><path
       id="path76-7"
       d="m 1081,4666 h 635 L 1331,2700 3781,4666 h 841 L 1850,2438 3878,0 H 3109 L 1247,2272 806,0 H 172 Z"
       transform="scale(0.015625)" /><path
       id="path77-3"
       d="m 1081,4666 h 1460 q 637,0 971,-297 335,-297 335,-869 0,-769 -494,-1197 -494,-428 -1387,-428 H 1172 L 806,0 H 172 Z m 532,-519 -338,-1753 h 794 q 537,0 824,275 288,275 288,787 0,328 -195,509 -195,182 -548,182 z"
       transform="scale(0.015625)" /><clipPath
       id="p90acac831a-0"><rect
         x="7.1999998"
         y="7.1999998"
         width="446.39999"
         height="221.75999"
         id="rect63-0" /></clipPath><clipPath
       id="p90acac831a-0-0"><rect
         x="7.1999998"
         y="7.1999998"
         width="446.39999"
         height="221.75999"
         id="rect63-0-4" /></clipPath><clipPath
       id="p90acac831a-4-0"><rect
         x="7.1999998"
         y="7.1999998"
         width="446.39999"
         height="221.75999"
         id="rect63-6-8" /></clipPath><clipPath
       id="p90acac831a-4-5"><rect
         x="7.1999998"
         y="7.1999998"
         width="446.39999"
         height="221.75999"
         id="rect63-6-2" /></clipPath><path
       id="DejaVuSerif-Bold-50-4"
       d="M 300,0 V 378 H 897 V 4288 H 300 v 378 h 2656 q 778,0 1237,-371 460,-370 460,-992 0,-625 -461,-999 -461,-373 -1236,-373 H 2100 V 378 h 753 V 0 Z m 1800,2309 h 350 q 406,0 648,270 243,271 243,724 0,450 -241,717 -241,268 -650,268 h -350 z"
       transform="scale(0.015625)" /><path
       id="DejaVuSerif-Bold-44-3"
       d="m 2100,378 h 434 q 732,0 1071,469 339,469 339,1491 0,1015 -338,1482 -337,468 -1072,468 H 2100 Z M 300,0 V 378 H 897 V 4288 H 300 v 378 h 2394 q 1256,0 1921,-600 666,-600 666,-1728 Q 5281,1203 4614,601 3947,0 2694,0 Z"
       transform="scale(0.015625)" /><clipPath
       id="p90acac831a-5-0"><rect
         x="7.1999998"
         y="7.1999998"
         width="446.39999"
         height="221.75999"
         id="rect63-8-4" /></clipPath><clipPath
       id="p90acac831a-5-0-9"><rect
         x="7.1999998"
         y="7.1999998"
         width="446.39999"
         height="221.75999"
         id="rect63-8-4-5" /></clipPath><clipPath
       id="p90acac831a-5-0-9-5"><rect
         x="7.1999998"
         y="7.1999998"
         width="446.39999"
         height="221.75999"
         id="rect63-8-4-5-4" /></clipPath><clipPath
       id="p90acac831a-5-0-9-8"><rect
         x="7.1999998"
         y="7.1999998"
         width="446.39999"
         height="221.75999"
         id="rect63-8-4-5-7" /></clipPath><clipPath
       id="p90acac831a-5-0-9-5-1"><rect
         x="7.1999998"
         y="7.1999998"
         width="446.39999"
         height="221.75999"
         id="rect63-8-4-5-4-1" /></clipPath><rect
       x="226.6667"
       y="160"
       width="51.103951"
       height="18.999998"
       id="rect14-1" /><rect
       x="226.6667"
       y="160"
       width="36.770618"
       height="20"
       id="rect14-1-9" /><clipPath
       id="p90acac831a-5-0-9-2"><rect
         x="7.1999998"
         y="7.1999998"
         width="446.39999"
         height="221.75999"
         id="rect63-8-4-5-76" /></clipPath></defs><defs
     id="defs63"><clipPath
       id="p90acac831a"><rect
         x="7.1999998"
         y="7.1999998"
         width="446.39999"
         height="221.75999"
         id="rect63" /></clipPath></defs><text
     xml:space="preserve"
     transform="matrix(0.75,0,0,0.75,-29.999998,9.9999992)"
     id="text1"
     style="font-style:oblique;font-variant:normal;font-weight:500;font-stretch:normal;font-size:16px;font-family:'CMU Sans Serif';-inkscape-font-specification:'CMU Sans Serif Medium Oblique';text-align:center;writing-mode:lr-tb;direction:ltr;white-space:pre;shape-inside:url(#rect1);display:inline;fill:none;stroke:#000000;stroke-linecap:round;stroke-linejoin:round" /><text
     xml:space="preserve"
     style="font-style:normal;font-variant:normal;font-weight:500;font-stretch:normal;font-size:12px;font-family:'CMU Typewriter Text';-inkscape-font-specification:'CMU Typewriter Text Medium';text-align:center;writing-mode:lr-tb;direction:ltr;text-anchor:middle;fill:none;stroke:#000000;stroke-width:0.75;stroke-linecap:round;stroke-linejoin:round"
     x="322.5"
     y="255.75"
     id="text2"><tspan
       sodipodi:role="line"
       id="tspan1"
       style="font-style:normal;font-variant:normal;font-weight:200;font-stretch:normal;font-family:'CMU Typewriter Text';-inkscape-font-specification:'CMU Typewriter Text Ultra-Light';fill:#000000;fill-opacity:1;stroke-width:0.75"
       x="322.5"
       y="255.75" /></text><g
     id="g14"
     transform="translate(-145.00001,78.999995)"><g
       id="g58"><rect
         style="fill:none;fill-opacity:1;stroke:#000000;stroke-width:1.5;stroke-linecap:round;stroke-linejoin:round;stroke-dasharray:none;stroke-opacity:1"
         id="rect13-0"
         width="50.000008"
         height="35"
         x="229.62502"
         y="-18.249998" /><text
         xml:space="preserve"
         transform="matrix(0.75,0,0,0.75,65.508956,-128.25)"
         id="text13-3"
         style="font-style:normal;font-variant:normal;font-weight:500;font-stretch:normal;font-size:16px;font-family:'CMU Serif';-inkscape-font-specification:'CMU Serif Medium';text-align:center;writing-mode:lr-tb;direction:ltr;white-space:pre;shape-inside:url(#rect14-1);display:inline;fill:none;fill-opacity:1;stroke:#000000;stroke-width:2;stroke-linecap:round;stroke-linejoin:round;stroke-dasharray:none;stroke-opacity:1"><tspan
           x="236.77875"
           y="174.8"
           id="tspan4"><tspan
             style="fill:#000000;stroke:none;stroke-linecap:butt"
             id="tspan3">PLL</tspan></tspan></text></g><g
       id="g59"><rect
         style="fill:none;fill-opacity:1;stroke:#000000;stroke-width:1.5;stroke-linecap:round;stroke-linejoin:round;stroke-dasharray:none;stroke-opacity:1"
         id="rect13-0-9"
         width="50.000008"
         height="35"
         x="229.62502"
         y="26" /><text
         xml:space="preserve"
         transform="matrix(0.75,0,0,0.75,70.860201,-83.6)"
         id="text13-3-7"
         style="font-style:normal;font-variant:normal;font-weight:500;font-stretch:normal;font-size:16px;font-family:'CMU Serif';-inkscape-font-specification:'CMU Serif Medium';text-align:center;writing-mode:lr-tb;direction:ltr;white-space:pre;shape-inside:url(#rect14-1-9);display:inline;fill:none;fill-opacity:1;stroke:#000000;stroke-width:2;stroke-linecap:round;stroke-linejoin:round;stroke-dasharray:none;stroke-opacity:1"><tspan
           x="233.27576"
           y="174.8"
           id="tspan6"><tspan
             style="fill:#000000;stroke:none;stroke-linecap:butt"
             id="tspan5">HT</tspan></tspan></text></g></g><text
     xml:space="preserve"
     style="font-style:italic;font-variant:normal;font-weight:500;font-stretch:normal;font-size:12px;font-family:'CMU Serif';-inkscape-font-specification:'CMU Serif Medium Italic';text-align:center;writing-mode:lr-tb;direction:ltr;text-anchor:middle;fill:#000000;fill-opacity:1;stroke:none;stroke-width:1.5;stroke-linecap:round;stroke-linejoin:round;stroke-dasharray:none;stroke-opacity:1"
     x="270.5"
     y="206.58565"
     id="text37"><tspan
       sodipodi:role="line"
       id="tspan37"
       style="stroke-width:1.5"
       x="272.64801"
       y="206.58565"> </tspan></text><text
     xml:space="preserve"
     transform="matrix(0.75,0,0,0.75,-69.324002,8.7679962)"
     id="text45"
     style="font-style:normal;font-variant:normal;font-weight:500;font-stretch:normal;font-size:16px;font-family:'CMU Serif';-inkscape-font-specification:'CMU Serif Medium';text-align:center;writing-mode:lr-tb;direction:ltr;white-space:pre;shape-inside:url(#rect46);display:inline;fill:none;fill-opacity:1;stroke:#000000;stroke-width:2;stroke-linecap:round;stroke-linejoin:round;stroke-dasharray:none;stroke-opacity:1"><tspan
       x="107.45599"
       y="114.8"
       id="tspan8"><tspan
         style="fill:#000000;stroke:none;stroke-linecap:butt"
         id="tspan7">Eta</tspan></tspan></text><text
     xml:space="preserve"
     transform="matrix(0.75,0,0,0.75,-80.000004,9.9999992)"
     id="text52"
     style="font-style:normal;font-variant:normal;font-weight:500;font-stretch:normal;font-size:16px;font-family:'CMU Serif';-inkscape-font-specification:'CMU Serif Medium';text-align:center;writing-mode:lr-tb;direction:ltr;white-space:pre;shape-inside:url(#rect52);display:inline;fill:#000000;fill-opacity:1;stroke:none;stroke-width:2;stroke-linecap:round;stroke-linejoin:round;stroke-dasharray:none;stroke-opacity:1"><tspan
       x="160"
       y="181.46602"
       id="tspan10"><tspan
         dx="0 10.880005 8.4320068 7.1040039 4.4320068 6.2080078 8 6.2080078 4.4320068 8 8.8800049 9.1040039 8 6.256012 7.1040039"
         style="stroke-linecap:butt"
         id="tspan9">ExcitationForce</tspan></tspan></text><text
     xml:space="preserve"
     transform="matrix(0.75,0,0,0.75,-80.000004,9.9999992)"
     id="text53"
     style="font-style:normal;font-variant:normal;font-weight:500;font-stretch:normal;font-size:16px;font-family:'CMU Serif';-inkscape-font-specification:'CMU Serif Medium';text-align:center;writing-mode:lr-tb;direction:ltr;white-space:pre;shape-inside:url(#rect53);display:inline;fill:#000000;fill-opacity:1;stroke:none;stroke-width:2;stroke-linecap:round;stroke-linejoin:round;stroke-dasharray:none;stroke-opacity:1" /><rect
     style="fill:none;fill-opacity:1;stroke:#000000;stroke-width:1.5;stroke-linecap:round;stroke-linejoin:round;stroke-dasharray:6, 6;stroke-dashoffset:0;stroke-opacity:1"
     id="rect59"
     width="80"
     height="94.999992"
     x="70.000015"
     y="54.999992" /><text
     xml:space="preserve"
     style="font-style:normal;font-variant:normal;font-weight:500;font-stretch:normal;font-size:12px;font-family:'CMU Serif';-inkscape-font-specification:'CMU Serif Medium';text-align:center;writing-mode:lr-tb;direction:ltr;text-anchor:middle;fill:none;fill-opacity:1;stroke:#000000;stroke-width:1.5;stroke-linecap:round;stroke-linejoin:round;stroke-dasharray:none;stroke-dashoffset:0;stroke-opacity:1"
     x="109.00002"
     y="20"
     id="text59"><tspan
       sodipodi:role="line"
       id="tspan59"
       style="fill:#000000;fill-opacity:1;stroke:none;stroke-width:1.5;stroke-dasharray:none"
       x="109.00002"
       y="20">Frequency</tspan><tspan
       sodipodi:role="line"
       style="fill:#000000;fill-opacity:1;stroke:none;stroke-width:1.5;stroke-dasharray:none"
       x="109.00002"
       y="35"
       id="tspan60">Estimation</tspan><tspan
       sodipodi:role="line"
       style="fill:#000000;fill-opacity:1;stroke:none;stroke-width:1.5;stroke-dasharray:none"
       x="109.00002"
       y="50"
       id="tspan61">Methods</tspan></text><path
     style="display:inline;fill:none;fill-rule:evenodd;stroke:#000000;stroke-width:1.5;stroke-linecap:round;stroke-linejoin:round;stroke-dasharray:none;stroke-opacity:1;marker-start:url(#Triangle)"
     d="M 79.000005,77.999994 H 50.000003"
     id="path62"
     inkscape:connector-type="orthogonal"
     inkscape:connector-curvature="0" /><path
     style="display:inline;fill:none;fill-rule:evenodd;stroke:#000000;stroke-width:1.5;stroke-linecap:round;stroke-linejoin:round;stroke-dasharray:none;stroke-opacity:1;marker-start:url(#Triangle)"
     d="m 79.000005,121.99999 -28.999999,0.1708"
     id="path63"
     inkscape:connector-type="polyline"
     inkscape:connector-curvature="0" /><path
     style="display:inline;fill:none;fill-rule:evenodd;stroke:#000000;stroke-width:1.5;stroke-linecap:round;stroke-linejoin:round;stroke-dasharray:none;stroke-opacity:1"
     d="M 10.000001,100 H 50.000003 V 77.999994"
     id="path64"
     inkscape:connector-type="orthogonal"
     inkscape:connector-curvature="0" /><path
     style="display:inline;fill:none;fill-rule:evenodd;stroke:#000000;stroke-width:1.5;stroke-linecap:round;stroke-linejoin:round;stroke-dasharray:none;stroke-opacity:1"
     d="M 50.000006,122.17079 49.999996,100"
     id="path65"
     inkscape:connector-type="polyline"
     inkscape:connector-curvature="0" /><g
     id="g6"
     transform="translate(-129.44046,22.019573)"
     style="stroke-linecap:butt;stroke-linejoin:round"><g
       id="matplotlib.axis_1"
       style="stroke-linecap:butt;stroke-linejoin:round"
       transform="translate(-2.0041248,-42.958576)" /><g
       id="matplotlib.axis_2"
       style="stroke-linecap:butt;stroke-linejoin:round"
       transform="translate(-2.0041248,-42.958576)" /><g
       id="g64"
       transform="translate(-2.0041248,-9.958576)"
       style="stroke-linecap:butt;stroke-linejoin:round" /><text
       xml:space="preserve"
       style="font-size:12px;font-family:'Latin Modern Roman', 'TeX Gyre Termes', serif;-inkscape-font-specification:'Latin Modern Roman, TeX Gyre Termes, serif';text-align:center;text-orientation:upright;text-anchor:middle;fill:#000000;stroke-width:1.5;stroke-linecap:butt;stroke-linejoin:bevel"
       x="280.37088"
       y="6.3754845"
       id="text83"><tspan
         sodipodi:role="line"
         id="tspan83"
         style="stroke-width:1.5"
         x="280.37088"
         y="6.3754845" /></text><text
       xml:space="preserve"
       style="font-style:italic;font-variant:normal;font-weight:bold;font-stretch:normal;font-size:12px;font-family:'Latin Modern Roman', 'TeX Gyre Termes', serif;-inkscape-font-specification:'Latin Modern Roman, TeX Gyre Termes, serif Bold Italic';text-align:center;text-orientation:upright;text-anchor:middle;white-space:pre;inline-size:1.4935e-05;display:inline;fill:none;stroke:#000000;stroke-width:1.5;stroke-linecap:round;stroke-linejoin:round;stroke-dasharray:9, 1.5;stroke-dashoffset:0;stroke-opacity:1"
       x="410.00006"
       y="45"
       id="text113"
       transform="translate(-2.0041248,-42.958576)"><tspan
         x="410.00006"
         y="45"
         id="tspan12"><tspan
           dx="0 8.0039062 3.3339844 6 8.6660156 5.3261719"
           style="font-weight:normal;-inkscape-font-specification:'Latin Modern Roman, TeX Gyre Termes, serif Italic';stroke-linecap:butt"
           id="tspan11">w\omeg</tspan></tspan></text><g
       id="g68"
       transform="translate(-15.000004,-1.0097887)"><g
         id="patch_9-0-6"
         transform="matrix(0.80324902,0,0,1.0218317,209.87191,-1.1750219)"
         style="stroke-linecap:butt;stroke-linejoin:round"><path
           d="m 193.2,93.132 h 37.2 q 3.72,0 3.72,-2.772 V 62.64 q 0,-2.772 -3.72,-2.772 h -37.2 q -3.72,0 -3.72,2.772 v 27.72 q 0,2.772 3.72,2.772 z"
           clip-path="url(#p90acac831a-5-0-9-2)"
           style="fill:#ffffff;stroke:#000000;stroke-width:1.5;stroke-linecap:butt;stroke-linejoin:miter"
           id="path9-6-5" /></g><path
         style="fill:none;fill-opacity:1;stroke:#000000;stroke-width:1.5;stroke-linecap:butt;stroke-linejoin:miter;stroke-dasharray:none;stroke-dashoffset:0;stroke-opacity:1"
         d="M 379.44048,75.990211 Z"
         id="path67" /><path
         style="fill:none;fill-opacity:1;stroke:#000000;stroke-width:1.5;stroke-linecap:butt;stroke-linejoin:miter;stroke-dasharray:none;stroke-dashoffset:0;stroke-opacity:1"
         d="m 369.94048,83.990206 h 5 l 10,-15 h 5"
         id="path68" /></g></g><path
     style="display:inline;fill:none;fill-rule:evenodd;stroke:#000000;stroke-width:1.5;stroke-linecap:round;stroke-linejoin:round;stroke-dasharray:none;stroke-opacity:1;marker-end:url(#ColoredDot)"
     d="m 134.62502,78.249997 25.37499,-0.0142"
     id="path69"
     inkscape:connector-type="polyline"
     inkscape:connector-curvature="0" /><path
     style="display:inline;fill:none;fill-rule:evenodd;stroke:#000000;stroke-width:1.5;stroke-linecap:round;stroke-linejoin:round;stroke-dasharray:none;stroke-opacity:1;marker-end:url(#marker73)"
     d="m 134.62502,122.49999 25.37499,0.0923"
     id="path70"
     inkscape:connector-type="polyline"
     inkscape:connector-curvature="0" /><path
     style="display:inline;fill:none;fill-rule:evenodd;stroke:#000000;stroke-width:1.5;stroke-linecap:butt;stroke-linejoin:miter;stroke-dasharray:none;stroke-opacity:1;marker-end:url(#Triangle)"
     d="m 253.4881,98.00489 h 24"
     id="path71"
     inkscape:connector-type="polyline"
     inkscape:connector-curvature="0" /><path
     style="display:inline;fill:none;fill-rule:evenodd;stroke:#000000;stroke-width:1.5;stroke-linecap:round;stroke-linejoin:miter;stroke-dasharray:none;stroke-opacity:1;marker-start:url(#marker73);marker-end:url(#marker73)"
     d="M 190.00002,97.86801 160.00001,78.235802"
     id="path74"
     inkscape:connector-type="polyline"
     inkscape:connector-curvature="0" /><path
     style="display:inline;fill:none;fill-rule:evenodd;stroke:#000000;stroke-width:1.5;stroke-linecap:round;stroke-linejoin:miter;stroke-dasharray:none;stroke-opacity:1;marker-end:url(#Triangle)"
     d="m 190.00002,97.86801 22.58074,0.14322"
     id="path75"
     inkscape:connector-type="polyline"
     inkscape:connector-curvature="0" /><rect
     style="fill:none;fill-opacity:1;stroke:#000000;stroke-width:1.51219;stroke-linecap:round;stroke-linejoin:round;stroke-dasharray:none;stroke-dashoffset:0;stroke-opacity:1"
     id="rect75"
     width="60.487804"
     height="60.487789"
     x="283.01224"
     y="68.499992" /><text
     xml:space="preserve"
     style="font-style:normal;font-variant:normal;font-weight:500;font-stretch:normal;font-size:12px;font-family:'CMU Serif';-inkscape-font-specification:'CMU Serif Medium';text-align:center;writing-mode:lr-tb;direction:ltr;text-anchor:middle;fill:none;fill-opacity:1;stroke:#000000;stroke-width:1.5;stroke-linecap:round;stroke-linejoin:round;stroke-dasharray:none;stroke-dashoffset:0;stroke-opacity:1"
     x="314.25003"
     y="81.499992"
     id="text59-4"><tspan
       sodipodi:role="line"
       style="fill:#000000;fill-opacity:1;stroke:none;stroke-width:1.5;stroke-dasharray:none"
       x="314.25003"
       y="81.499992"
       id="tspan77">PTO </tspan><tspan
       sodipodi:role="line"
       style="fill:#000000;fill-opacity:1;stroke:none;stroke-width:1.5;stroke-dasharray:none"
       x="314.25003"
       y="96.499992"
       id="tspan78">Parameter </tspan><tspan
       sodipodi:role="line"
       style="fill:#000000;fill-opacity:1;stroke:none;stroke-width:1.5;stroke-dasharray:none"
       x="314.25003"
       y="111.49999"
       id="tspan80">Look-up </tspan><tspan
       sodipodi:role="line"
       style="fill:#000000;fill-opacity:1;stroke:none;stroke-width:1.5;stroke-dasharray:none"
       x="314.25003"
       y="126.49999"
       id="tspan84">Table</tspan></text><path
     style="display:inline;fill:none;fill-rule:evenodd;stroke:#000000;stroke-width:1.5;stroke-linecap:round;stroke-linejoin:round;stroke-dasharray:none;stroke-opacity:1;marker-end:url(#Triangle)"
     d="m 344.00003,79.999994 36,3e-6"
     id="path80"
     inkscape:connector-type="polyline"
     inkscape:connector-curvature="0" /><path
     style="display:inline;fill:none;fill-rule:evenodd;stroke:#000000;stroke-width:1.5;stroke-linecap:round;stroke-linejoin:round;stroke-dasharray:none;stroke-opacity:1;marker-end:url(#Triangle)"
     d="m 344.00003,119.99999 36,1e-5"
     id="path81"
     inkscape:connector-type="polyline"
     inkscape:connector-curvature="0" /><text
     xml:space="preserve"
     style="font-style:normal;font-variant:normal;font-weight:500;font-stretch:normal;font-size:12px;font-family:'CMU Serif';-inkscape-font-specification:'CMU Serif Medium';text-align:center;writing-mode:lr-tb;direction:ltr;text-anchor:middle;fill:none;fill-opacity:1;stroke:#000000;stroke-width:1.5;stroke-linecap:round;stroke-linejoin:round;stroke-dasharray:none;stroke-dashoffset:0;stroke-opacity:1"
     x="351.5"
     y="74"
     id="text81"><tspan
       sodipodi:role="line"
       id="tspan81"
       style="fill:#000000;fill-opacity:1;stroke:none;stroke-width:1.5"
       x="351.5"
       y="74">K<tspan
   style="font-size:65%;baseline-shift:sub;fill:#000000;fill-opacity:1;stroke:none"
   id="tspan82">i</tspan></tspan></text><text
     xml:space="preserve"
     style="font-style:normal;font-variant:normal;font-weight:500;font-stretch:normal;font-size:12px;font-family:'CMU Serif';-inkscape-font-specification:'CMU Serif Medium';text-align:center;writing-mode:lr-tb;direction:ltr;text-anchor:middle;fill:none;fill-opacity:1;stroke:#000000;stroke-width:1.5;stroke-linecap:round;stroke-linejoin:round;stroke-dasharray:none;stroke-dashoffset:0;stroke-opacity:1"
     x="352.75"
     y="114"
     id="text81-8"><tspan
       sodipodi:role="line"
       id="tspan81-9"
       style="fill:#000000;fill-opacity:1;stroke:none;stroke-width:1.5"
       x="352.75"
       y="114">K<tspan
   style="font-size:65%;baseline-shift:sub;fill:#000000;fill-opacity:1;stroke:none"
   id="tspan82-9">p</tspan></tspan></text><text
     xml:space="preserve"
     style="font-style:normal;font-variant:normal;font-weight:500;font-stretch:normal;font-size:12px;font-family:'CMU Serif';-inkscape-font-specification:'CMU Serif Medium';text-align:center;writing-mode:lr-tb;direction:ltr;text-anchor:middle;fill:#000000;fill-opacity:1;stroke:none;stroke-width:1.5;stroke-linecap:round;stroke-linejoin:round;stroke-dasharray:none;stroke-dashoffset:0;stroke-opacity:1"
     x="235.00003"
     y="124.99998"
     id="text85"><tspan
       sodipodi:role="line"
       id="tspan85"
       style="stroke-width:1.5"
       x="235.00003"
       y="124.99998">Saturation</tspan></text><text
     xml:space="preserve"
     style="font-style:normal;font-variant:normal;font-weight:500;font-stretch:normal;font-size:12px;font-family:'CMU Serif';-inkscape-font-specification:'CMU Serif Medium';text-align:center;writing-mode:lr-tb;direction:ltr;text-anchor:middle;fill:#000000;fill-opacity:1;stroke:none;stroke-width:1.5;stroke-linecap:round;stroke-linejoin:round;stroke-dasharray:none;stroke-dashoffset:0;stroke-opacity:1"
     x="204.12003"
     y="88.999992"
     id="text86"><tspan
       sodipodi:role="line"
       id="tspan86"
       style="stroke-width:1.5"
       x="204.12003"
       y="88.999992"><tspan
   style="font-style:italic;font-variant:normal;font-weight:500;font-stretch:normal;font-family:'CMU Serif';-inkscape-font-specification:'CMU Serif Medium Italic'"
   id="tspan87">f</tspan>(t)</tspan></text><text
     xml:space="preserve"
     style="font-style:italic;font-variant:normal;font-weight:500;font-stretch:normal;font-size:12px;font-family:'CMU Serif';-inkscape-font-specification:'CMU Serif Medium Italic';text-align:center;writing-mode:lr-tb;direction:ltr;text-anchor:middle;fill:#000000;fill-opacity:1;stroke:none;stroke-width:1.5;stroke-linecap:round;stroke-linejoin:round;stroke-dasharray:none;stroke-dashoffset:0;stroke-opacity:1"
     x="250"
     y="-59.999992"
     id="text88"><tspan
       sodipodi:role="line"
       id="tspan88"
       style="stroke-width:1.5"
       x="252.14799"
       y="-59.999992"> </tspan></text></svg>
